<svg xmlns="http://www.w3.org/2000/svg" viewBox="0 0 500 500">
    <g id="freepik--Screen--inject-2" class="animation">
        <rect x="238.49" y="70.57" width="6.39" height="1.03" style="fill:#F58324"></rect>
        <rect x="319.14" y="119.42" width="17.18" height="1.03" transform="translate(193.16 441.94) rotate(-87.42)" style="fill:#F58324"></rect>
        <polygon points="325.61 75.19 207.61 75.19 196.63 320.91 314.63 320.91 325.61 75.19" style="fill:#F58324"></polygon>
        <polygon points="322.09 78.57 204.09 78.57 193.11 324.29 311.11 324.29 322.09 78.57" style="fill:#fafafa;opacity:0.56"></polygon>
        <polygon points="318.57 81.94 200.57 81.94 189.58 327.66 307.58 327.66 318.57 81.94" style="fill:#F58324;opacity:0.07"></polygon>
        <polygon points="305.14 189.11 204.42 189.11 203.58 207.91 304.3 207.91 305.14 189.11" style="fill:#fff"></polygon>
        <polygon points="259.81 175.39 205.03 175.39 204.66 183.8 259.44 183.8 259.81 175.39" style="fill:#F58324"></polygon>
        <polygon points="302.87 239.85 202.15 239.85 201.31 258.65 302.03 258.65 302.87 239.85" style="fill:#fff"></polygon>
        <polygon points="284.4 284.04 216.67 284.04 215.66 306.57 283.39 306.57 284.4 284.04" style="fill:#F58324;opacity:0.47000000000000003"></polygon>
        <path d="M279.87,310.07H212.14a.18.18,0,0,1-.09,0,.14.14,0,0,1,0-.09l1-22.54a.11.11,0,0,1,.12-.11h67.73a.09.09,0,0,1,.08,0,.08.08,0,0,1,0,.08L280,310A.13.13,0,0,1,279.87,310.07Zm-67.61-.24h67.49l1-22.3H213.26Z" style="fill:#fff"></path>
        <polygon points="247.98 226.13 202.76 226.13 202.39 234.55 247.6 234.55 247.98 226.13" style="fill:#F58324"></polygon>
        <path d="M283.11,128.38a26.53,26.53,0,0,1-5.57,15.05A26.88,26.88,0,0,1,256.34,154a24.31,24.31,0,0,1-24.46-25.62,27,27,0,0,1,26.75-25.62A24.29,24.29,0,0,1,283.11,128.38Z" style="fill:#fff"></path>
        <path d="M285.52,108.12a7,7,0,0,1-1.48,4,7.17,7.17,0,0,1-5.64,2.81,6.48,6.48,0,0,1-5.38-2.81,6.61,6.61,0,0,1-1.12-4,7.18,7.18,0,0,1,7.11-6.8A6.46,6.46,0,0,1,285.52,108.12Z" style="fill:#F58324"></path>
        <path d="M215.27,198.51a3.19,3.19,0,0,1-3.15,3,2.85,2.85,0,0,1-2.88-3,3.17,3.17,0,0,1,3.15-3A2.86,2.86,0,0,1,215.27,198.51Z" style="fill:#263238"></path>
        <path d="M228.75,198.51a3.18,3.18,0,0,1-3.15,3,2.85,2.85,0,0,1-2.87-3,3.17,3.17,0,0,1,3.14-3A2.85,2.85,0,0,1,228.75,198.51Z" style="fill:#263238"></path>
        <path d="M242.24,198.51a3.18,3.18,0,0,1-3.15,3,2.86,2.86,0,0,1-2.88-3,3.18,3.18,0,0,1,3.15-3A2.85,2.85,0,0,1,242.24,198.51Z" style="fill:#263238"></path>
        <path d="M213,249.25a3.19,3.19,0,0,1-3.15,3,2.86,2.86,0,0,1-2.88-3,3.18,3.18,0,0,1,3.15-3A2.86,2.86,0,0,1,213,249.25Z" style="fill:#263238"></path>
        <path d="M226.48,249.25a3.18,3.18,0,0,1-3.14,3,2.85,2.85,0,0,1-2.88-3,3.18,3.18,0,0,1,3.15-3A2.85,2.85,0,0,1,226.48,249.25Z" style="fill:#263238"></path>
        <path d="M240,249.25a3.18,3.18,0,0,1-3.15,3,2.87,2.87,0,0,1-2.88-3,3.19,3.19,0,0,1,3.15-3A2.85,2.85,0,0,1,240,249.25Z" style="fill:#263238"></path>
        <path d="M253.46,249.25a3.19,3.19,0,0,1-3.15,3,2.87,2.87,0,0,1-2.88-3,3.19,3.19,0,0,1,3.15-3A2.86,2.86,0,0,1,253.46,249.25Z" style="fill:#263238"></path>
        <path d="M267,249.25a3.19,3.19,0,0,1-3.15,3,2.85,2.85,0,0,1-2.88-3,3.18,3.18,0,0,1,3.15-3A2.86,2.86,0,0,1,267,249.25Z" style="fill:#263238"></path>
        <ellipse cx="257.87" cy="119.82" rx="10.6" ry="10.13" transform="translate(-10.27 214.43) rotate(-44.36)" style="fill:#F58324"></ellipse>
        <path d="M277.54,143.43A26.88,26.88,0,0,1,256.34,154a24.27,24.27,0,0,1-20.24-10.57c4.86-4.84,12.55-8,21.07-8S273.11,138.59,277.54,143.43Z" style="fill:#F58324"></path>
        <ellipse cx="257.87" cy="119.82" rx="10.6" ry="10.13" transform="translate(-10.27 214.43) rotate(-44.36)" style="fill:#fff;opacity:0.1"></ellipse>
        <path d="M277.54,143.43A26.88,26.88,0,0,1,256.34,154a24.27,24.27,0,0,1-20.24-10.57c4.86-4.84,12.55-8,21.07-8S273.11,138.59,277.54,143.43Z" style="fill:#fff;opacity:0.1"></path>
    </g>
</svg>